<?xml version="1.0" encoding="utf-8"?>
<!-- Generator: Adobe Illustrator 16.0.0, SVG Export Plug-In . SVG Version: 6.00 Build 0)  -->
<!DOCTYPE svg PUBLIC "-//W3C//DTD SVG 1.0//EN" "http://www.w3.org/TR/2001/REC-SVG-20010904/DTD/svg10.dtd">
<svg version="1.0" id="Layer_1" xmlns="http://www.w3.org/2000/svg" xmlns:xlink="http://www.w3.org/1999/xlink" x="0px" y="0px"
	 width="53.453px" height="80.18px" viewBox="0 0 53.453 80.18" enable-background="new 0 0 53.453 80.18" xml:space="preserve">
<g>
	<path fill="#DA6260" d="M51.73,36.07L32.729,76.474c-1.096,2.297-3.497,3.706-6.003,3.706s-4.907-1.409-5.951-3.706L1.723,36.07
		C0.365,33.199,0,29.911,0,26.727C0,11.954,11.954,0,26.727,0s26.727,11.954,26.727,26.727C53.453,29.911,53.088,33.199,51.73,36.07
		z M26.727,13.363c-7.36,0-13.363,6.003-13.363,13.363S19.366,40.09,26.727,40.09S40.09,34.087,40.09,26.727
		S34.087,13.363,26.727,13.363z"/>
</g>
</svg>
